<?xml version="1.0" standalone="no"?>
<!DOCTYPE svg PUBLIC "-//W3C//DTD SVG 20010904//EN"
 "http://www.w3.org/TR/2001/REC-SVG-20010904/DTD/svg10.dtd">
<svg version="1.0" xmlns="http://www.w3.org/2000/svg"
 width="1113.000000pt" height="1280.000000pt" viewBox="0 0 1113.000000 1280.000000"
 preserveAspectRatio="xMidYMid meet">
<metadata>
Created by potrace 1.15, written by Peter Selinger 2001-2017
</metadata>
<g transform="translate(0.000000,1280.000000) scale(0.100000,-0.100000)"
fill="#000000" stroke="none">
<path d="M5230 12793 c-262 -27 -504 -106 -659 -216 -149 -105 -293 -279 -326
-394 -23 -79 -86 -137 -296 -276 -96 -63 -221 -152 -279 -197 -327 -258 -705
-639 -916 -922 -146 -196 -348 -570 -448 -830 -169 -439 -376 -1230 -555
-2123 -93 -462 -121 -694 -146 -1205 -15 -324 -32 -548 -42 -564 -3 -5 -9 -93
-12 -196 -7 -186 -7 -188 -36 -229 -26 -39 -29 -52 -35 -159 -4 -74 -16 -154
-33 -217 -14 -55 -48 -206 -76 -336 -64 -297 -97 -404 -170 -554 -65 -132
-139 -249 -269 -425 -103 -140 -165 -206 -302 -318 -355 -292 -471 -413 -553
-577 -47 -93 -66 -170 -73 -290 -7 -115 15 -294 47 -379 33 -89 77 -144 264
-332 234 -235 337 -323 427 -366 40 -19 167 -90 283 -157 375 -219 1049 -538
1400 -664 146 -53 253 -76 400 -87 72 -6 148 -15 170 -21 64 -18 107 -71 140
-175 41 -134 81 -208 149 -279 108 -111 330 -234 501 -277 126 -31 333 -31
453 0 151 39 285 111 404 218 107 95 102 94 1298 159 953 52 1185 70 1360 110
143 32 235 47 585 95 1053 142 1891 364 2470 653 295 147 476 294 613 497 203
303 215 681 30 986 -49 81 -125 179 -278 359 -272 319 -402 507 -539 783 -131
263 -217 500 -324 897 -36 132 -89 326 -118 430 -28 105 -60 221 -70 259 -11
38 -19 93 -19 122 0 42 -5 59 -26 83 -23 27 -25 36 -19 83 6 47 3 60 -26 113
-27 51 -32 72 -35 143 -2 46 -8 98 -13 115 -10 32 -38 173 -156 802 -126 670
-278 1358 -356 1615 -82 272 -267 753 -438 1140 -279 631 -550 1070 -861 1394
-264 275 -905 753 -1295 965 -192 105 -201 113 -219 218 -20 113 -70 204 -170
310 -68 72 -92 90 -170 128 -141 67 -292 95 -491 93 -60 -1 -126 -3 -145 -5z
m310 -168 c100 -20 129 -32 166 -72 19 -20 41 -33 56 -33 30 0 68 -39 101
-105 27 -55 50 -79 85 -89 12 -4 22 -15 22 -26 0 -23 -54 -42 -209 -70 -130
-24 -203 -49 -246 -84 -25 -20 -28 -28 -19 -43 35 -59 294 -188 571 -284 164
-57 358 -155 552 -277 91 -58 190 -116 219 -129 33 -16 58 -35 67 -53 9 -17
33 -37 58 -48 53 -25 142 -97 319 -258 161 -147 262 -256 283 -308 9 -21 26
-41 41 -46 15 -6 32 -26 43 -52 10 -24 66 -120 123 -213 58 -94 151 -256 207
-360 157 -292 414 -813 435 -880 10 -33 27 -77 38 -97 72 -140 405 -1258 452
-1518 151 -832 150 -826 231 -1400 118 -843 229 -1349 327 -1503 23 -35 27
-51 19 -60 -8 -10 -4 -23 16 -52 14 -21 45 -88 68 -149 23 -61 81 -202 129
-314 48 -111 94 -231 103 -267 17 -62 17 -64 -2 -85 -35 -39 -92 -27 -525 105
-250 76 -495 110 -635 86 -80 -14 -165 -39 -165 -50 0 -12 53 -58 86 -74 63
-32 174 -69 379 -128 334 -95 614 -198 827 -304 169 -84 204 -115 131 -115
-49 0 -174 34 -446 121 -122 39 -291 88 -374 110 -150 38 -205 58 -218 80 -5
7 -24 8 -54 4 -37 -5 -57 -1 -101 19 -68 31 -154 48 -390 80 -734 98 -2389
199 -2995 181 -832 -23 -1910 -118 -2345 -206 -90 -18 -151 -35 -353 -101 -49
-15 -108 -28 -132 -28 -23 0 -62 -7 -86 -16 -24 -8 -192 -56 -374 -105 -531
-145 -714 -212 -926 -339 -270 -163 -453 -342 -492 -483 -9 -28 -18 -95 -22
-148 -8 -112 -20 -143 -57 -147 -34 -4 -88 43 -158 137 -106 144 -141 271
-105 382 60 186 274 391 539 514 196 92 417 157 781 230 126 26 266 58 310 72
74 23 205 89 205 103 0 4 -31 37 -69 73 -66 64 -71 67 -118 67 -26 0 -104 -11
-173 -25 -152 -30 -361 -51 -413 -41 -22 4 -37 13 -37 21 0 17 60 178 174 469
50 125 90 244 95 277 4 36 18 74 35 99 17 26 25 48 21 60 -4 12 4 36 19 62 33
57 42 98 61 256 8 74 24 166 35 205 46 167 159 913 270 1792 103 811 169 1242
251 1645 188 913 416 1459 843 2010 99 128 362 394 509 516 363 299 798 559
1086 650 145 46 191 78 191 135 0 80 -65 117 -229 131 -120 10 -161 24 -161
57 0 30 73 133 132 187 134 122 337 225 513 260 85 17 294 11 405 -11z m-1352
-9160 c6 -6 -274 -1568 -288 -1601 -6 -14 -35 -30 -101 -54 -52 -18 -125 -48
-164 -67 -193 -96 -423 -311 -471 -440 -35 -97 -52 -102 -266 -79 -398 43
-645 105 -945 239 -359 160 -736 444 -920 694 -76 102 -98 158 -98 243 1 167
161 318 520 491 327 158 640 264 1105 374 85 20 194 52 242 71 92 36 151 47
343 65 66 6 151 17 188 25 139 29 565 56 747 47 58 -2 106 -6 108 -8z m2117
-15 c668 -19 1161 -43 1245 -62 25 -6 86 -13 136 -17 77 -5 97 -10 132 -34 36
-26 54 -30 189 -43 169 -16 328 -42 523 -85 759 -169 1288 -368 1750 -658 257
-162 307 -183 330 -141 17 32 14 117 -4 143 -9 12 -23 32 -32 44 -9 12 -18 49
-21 82 -7 69 8 86 51 58 37 -25 145 -174 184 -255 80 -167 45 -344 -107 -534
-71 -90 -116 -126 -140 -111 -24 15 -25 35 -11 185 12 125 11 140 -4 163 -9
14 -24 25 -34 25 -26 0 -113 -55 -223 -142 -273 -214 -675 -438 -966 -538
-164 -57 -612 -158 -948 -214 -236 -40 -997 -120 -1430 -150 -627 -45 -1360
-76 -1783 -76 -253 0 -292 8 -292 56 0 38 -65 147 -168 281 -214 280 -252 344
-252 429 0 91 101 646 131 721 7 15 15 67 19 115 5 71 11 93 28 111 19 20 22
35 22 104 0 69 4 90 30 145 25 53 29 70 24 111 -6 41 -3 53 17 80 18 24 24 47
26 92 3 89 14 95 223 115 114 11 960 11 1355 0z"/>
</g>
</svg>
