<?xml version="1.0" standalone="no"?>
<!DOCTYPE svg PUBLIC "-//W3C//DTD SVG 20010904//EN"
 "http://www.w3.org/TR/2001/REC-SVG-20010904/DTD/svg10.dtd">
<svg version="1.0" xmlns="http://www.w3.org/2000/svg"
 width="1280.000000pt" height="720.000000pt" viewBox="0 0 1280.000000 720.000000"
 preserveAspectRatio="xMidYMid meet">
<metadata>
Created by potrace 1.15, written by Peter Selinger 2001-2017
</metadata>
<g transform="translate(0.000000,720.000000) scale(0.100000,-0.100000)"
fill="#000000" stroke="none">
<path d="M3731 7101 c-18 -5 -40 -16 -49 -24 -13 -14 -13 -21 8 -71 23 -58 32
-64 73 -45 18 8 30 8 46 0 42 -23 14 -61 -45 -61 l-27 0 7 -61 c3 -33 8 -65
12 -70 6 -10 67 -12 102 -3 12 4 22 12 22 20 0 8 15 20 33 27 53 23 71 51 75
120 3 52 0 67 -20 96 -39 57 -71 75 -141 78 -34 1 -77 -2 -96 -6z"/>
<path d="M3752 6697 c-36 -38 -21 -134 23 -151 37 -14 105 -6 125 14 28 28 27
98 -1 134 -17 22 -28 26 -73 26 -42 0 -57 -5 -74 -23z"/>
<path d="M4467 6533 c-4 -3 -7 -33 -7 -65 0 -44 3 -58 15 -58 26 0 65 -23 71
-42 9 -28 0 -32 -36 -13 -40 21 -55 10 -75 -58 -8 -28 -15 -52 -15 -54 0 -1
18 -12 40 -23 43 -22 75 -26 85 -10 3 6 24 10 46 10 53 0 85 23 105 76 33 85
-6 172 -97 218 -50 24 -117 34 -132 19z"/>
<path d="M3065 6431 c-53 -22 -125 -125 -125 -179 0 -27 5 -32 61 -53 68 -25
64 -27 101 40 18 33 38 41 38 15 0 -8 -10 -32 -22 -53 l-21 -37 44 -42 c56
-53 79 -53 119 -2 26 33 30 43 20 55 -9 11 -9 22 -1 46 39 113 -31 220 -143
218 -28 0 -60 -4 -71 -8z"/>
<path d="M4370 6182 c-13 -10 -23 -33 -27 -58 -4 -35 -1 -46 23 -73 29 -31 43
-36 96 -33 33 2 58 44 58 96 0 68 -96 112 -150 68z"/>
<path d="M3273 6105 c-54 -38 -50 -131 8 -160 58 -30 118 -16 144 35 22 43 19
65 -16 105 -26 30 -38 35 -73 35 -23 0 -51 -7 -63 -15z"/>
<path d="M4040 5924 c-67 -13 -150 -48 -195 -82 -123 -93 -160 -305 -80 -468
27 -56 77 -112 168 -187 31 -27 57 -54 57 -62 0 -8 -29 -22 -70 -34 -97 -30
-149 -80 -180 -175 -12 -38 -39 -105 -60 -150 -54 -118 -62 -166 -49 -299 9
-91 8 -138 -5 -249 -17 -160 -12 -188 39 -212 36 -17 58 -13 90 17 33 31 53
39 62 25 15 -24 39 -628 26 -674 l-8 -31 -505 148 -505 148 -264 -32 -264 -31
7 -111 c4 -60 10 -112 14 -116 4 -3 688 -246 1520 -540 l1514 -534 -54 -48
c-199 -181 -637 -399 -1260 -626 l-167 -61 -213 85 c-117 47 -219 83 -227 80
-8 -3 -333 -218 -723 -477 -640 -425 -708 -473 -708 -497 1 -52 28 -443 32
-446 2 -2 687 72 1523 163 l1520 167 -4 225 c-2 124 -7 227 -12 230 -5 3 53
36 129 74 301 150 592 327 767 469 101 81 205 192 256 270 22 34 42 63 44 65
3 3 323 -107 711 -244 l706 -249 -6 -182 -7 -182 33 -6 c18 -3 341 -43 718
-89 377 -47 981 -121 1343 -166 362 -45 660 -80 662 -78 3 3 25 363 25 410 0
24 -61 71 -560 432 -307 224 -565 409 -572 411 -8 3 -107 -24 -222 -61 -115
-36 -216 -66 -226 -67 -30 -2 -869 248 -852 254 9 3 64 9 122 13 362 24 1022
107 1390 176 l105 20 234 -65 c129 -36 240 -64 246 -61 7 2 69 105 138 228
l126 223 7 142 7 142 -74 -5 c-41 -2 -382 -11 -759 -19 -377 -8 -735 -18 -797
-21 l-112 -6 -3 -76 -3 -77 -50 -7 c-209 -30 -728 -73 -1095 -89 -330 -15
-1009 -6 -1235 16 l-160 15 -780 229 c-429 126 -773 232 -765 234 8 3 32 8 52
12 30 5 39 11 44 32 10 37 -1 49 -81 92 -83 45 -128 98 -144 171 -17 79 -13
225 9 346 30 159 36 369 17 529 -9 72 -21 175 -27 230 -6 55 -19 134 -29 175
-10 41 -17 78 -14 83 9 16 111 5 178 -18 88 -31 126 -32 161 -2 20 17 27 33
26 56 -1 48 -22 73 -105 124 -43 27 -85 62 -99 84 -50 74 -98 170 -98 196 0
14 12 58 26 99 35 99 43 241 19 323 -31 108 -108 186 -221 226 -54 19 -177 32
-224 23z m-191 -1372 c-37 -145 -43 -180 -41 -265 l1 -98 -40 32 c-23 18 -43
38 -46 45 -7 19 13 127 40 222 23 77 119 262 125 242 2 -6 -15 -86 -39 -178z
m-85 -428 c3 -8 2 -12 -4 -9 -6 3 -10 10 -10 16 0 14 7 11 14 -7z m406 -111
c59 -93 70 -139 70 -301 0 -81 -4 -174 -9 -207 -5 -33 -15 -106 -22 -163 l-12
-103 -26 6 c-14 3 -56 15 -93 27 -63 19 -68 22 -78 56 -5 21 -10 151 -10 294
0 237 2 262 21 313 26 70 72 125 105 125 18 0 32 -12 54 -47z"/>
</g>
</svg>
